<svg xmlns="http://www.w3.org/2000/svg" xmlns:xlink="http://www.w3.org/1999/xlink" version="1.1" x="0px" y="0px" viewBox="0 0 100 125" style="enable-background:new 0 0 100 100;" xml:space="preserve"><style type="text/css">
	.st0{fill-rule:evenodd;clip-rule:evenodd;}
</style><path class="st0" d="M73.7,65.3c0.4,5.2,1.9,7.2,3.9,10c0.8,1.2,1.9,2.4,3,3.5c-9.7,6.4-20.5,11.5-32.1,14.9c0,0,0,0,0-0.1  c-0.8-4.4-1.7-8.8-3-13c-1-3.2-1.7-7.1-5-8.9c-3.3-1.8-7.3-0.5-10.8-0.3c-5.9,0.2-6.3-2.2-6.5-3.7c-0.2-1.6-0.1-3.2-0.1-3.9  c0-0.7-0.6-1.1-1.1-1.8c-0.5-0.7,0.4-2.5,0.4-2.5c-2.1-0.5-2.4-1.5-2.5-1.9c0-0.4,0.3-1.4,0.5-2.5c0.3-1.1,0.1-1.5-1.8-1.9  c-1-0.2-1.8-0.6-2.4-1.4c-0.3-0.4-0.6-0.8-0.5-1.3c0-0.6,0.9-1.7,1.2-2.3c0.6-1,1.5-2.3,1.5-2.3c0.6-1,2.2-3.6,3-4.4  c0.7-0.8,1.2-2.1,1.3-3.2c0.1-1.1-0.6-3.2-0.6-4.6c0.1-1.6,0.7-3.3,1.2-4.8c0.6-1.7,0.7-3.5,1.3-5.2c2.1-7.1,7.5-13.2,14.8-15.8  C43,6.8,47.1,6.3,51,6.2c1,0,2,0,3,0c4,0.2,8,0.8,11.8,2c4.7,1.6,9.1,4.2,12.3,7.9c2.2,2.5,3.8,5.3,4.8,8.4  c3.4,10.5,0.4,22.6-5.3,31.8C75.9,59.2,73.5,62.1,73.7,65.3z"/><text x="0" y="115" fill="#000000" font-size="5px" font-weight="bold" font-family="'Helvetica Neue', Helvetica, Arial-Unicode, Arial, Sans-serif">Created by frederick allen</text><text x="0" y="120" fill="#000000" font-size="5px" font-weight="bold" font-family="'Helvetica Neue', Helvetica, Arial-Unicode, Arial, Sans-serif">from the Noun Project</text></svg>